<?xml version="1.0" encoding="utf-8"?>
<!-- Generator: Adobe Illustrator 25.2.1, SVG Export Plug-In . SVG Version: 6.00 Build 0)  -->
<svg version="1.1" xmlns="http://www.w3.org/2000/svg" xmlns:xlink="http://www.w3.org/1999/xlink" x="0px" y="0px"
	 viewBox="0 0 500 500" style="enable-background:new 0 0 500 500;" xml:space="preserve">
<style type="text/css">
	.st0{fill:#E66600;}
	.st1{fill:#FFBA00;}
	.st2{fill:#FDE09C;}
	.st3{fill:#FF717D;}
	.st4{fill:#FF969F;}
	.st5{fill:#E21B4E;}
	.st6{fill:#FFFFFF;}
	.st7{font-family:'ArialMT';}
	.st8{font-size:63.372px;}
</style>
<g id="BACKGROUND">
</g>
<g id="OBJECTS">
	<g id="XMLID_84_">
		<g id="XMLID_1_">
			<g id="XMLID_15_">
				<circle id="XMLID_27_" class="st0" cx="250" cy="201.49" r="191.49"/>
				<g id="XMLID_24_">
					<path id="XMLID_26_" class="st1" d="M250,352.67c-83.36,0-151.18-67.82-151.18-151.18S166.64,50.31,250,50.31
						s151.18,67.82,151.18,151.18S333.36,352.67,250,352.67z"/>
					<path id="XMLID_25_" class="st1" d="M250,10C144.24,10,58.51,95.73,58.51,201.49S144.24,392.99,250,392.99V10z"/>
				</g>
				<path id="XMLID_23_" class="st2" d="M250,50.31c-83.36,0-151.18,67.82-151.18,151.18S166.64,352.67,250,352.67V50.31z"/>
				<g id="XMLID_2_">
					<g id="XMLID_12_">
						<path id="XMLID_14_" class="st3" d="M154.01,205.25c-20.95,0-37.99-17.04-37.99-37.99v-17.77h15.96v17.77
							c0,12.15,9.88,22.03,22.03,22.03V205.25z"/>
						<path id="XMLID_13_" class="st3" d="M355.29,170.53c-6.26-17.03-18.31-31.26-33.78-40.28v-32.3
							c-14.04,0-25.85,9.47-29.43,22.37c-3.14-0.39-6.34-0.59-9.58-0.59h-58.93c-42.82,0-77.54,34.72-77.54,77.54
							c0,36.98,25.89,67.92,60.54,75.67v29.26h30.98v-27.39h30.96v27.39h30.98v-29.27c25.84-5.78,46.82-24.45,55.81-48.91h21.38
							v-53.48H355.29z"/>
					</g>
					<path id="XMLID_11_" class="st4" d="M261.35,119.73h-37.79c-42.82,0-77.54,34.72-77.54,77.54c0,36.98,25.89,67.92,60.54,75.67
						v29.26h30.98v-27.39h23.8L261.35,119.73L261.35,119.73z"/>
					<g id="XMLID_8_">
						<rect id="XMLID_10_" x="219.12" y="144.39" class="st5" width="67.82" height="15.96"/>
						<path id="XMLID_9_" class="st5" d="M320.94,160.05c-5.86,0-10.63,4.77-10.63,10.63c0,5.86,4.77,10.63,10.63,10.63
							c5.86,0,10.63-4.77,10.63-10.63S326.8,160.05,320.94,160.05z"/>
					</g>
				</g>
				<g id="XMLID_16_">
					<path id="XMLID_17_" class="st6" d="M255.13,198.02V182.8c7.19,1.24,7.19,5.7,7.19,7.32h8.45c0-8.88-5.76-14.6-15.64-15.84
						v-6.09h-8.45v6.09c-9.87,1.24-15.64,6.96-15.64,15.84s5.76,14.6,15.64,15.84v15.22c-7.19-1.24-7.19-5.7-7.19-7.32h-8.45
						c0,8.88,5.76,14.6,15.64,15.84v6.09h8.45v-6.09c9.87-1.24,15.64-6.96,15.64-15.84S265,199.26,255.13,198.02z M239.49,190.12
						c0-1.62,0-6.08,7.19-7.32v14.64C239.49,196.2,239.49,191.74,239.49,190.12z M255.13,221.18v-14.64
						c7.19,1.24,7.19,5.7,7.19,7.32C262.32,215.48,262.32,219.94,255.13,221.18z"/>
				</g>
			</g>
		</g>
	</g>
	<text transform="matrix(1 0 0 1 73.855 489.4219)" class="st7 st8">Intellifinance</text>
</g>
<g id="DESIGNED_BY_FREEPIK">
</g>
</svg>
